<svg width="21" height="20" viewBox="0 0 21 20" fill="none" xmlns="http://www.w3.org/2000/svg">
<g id="Loader" clip-path="url(#clip0_13_663)">
<path id="Rectangle" fill-rule="evenodd" clip-rule="evenodd" d="M11.2143 5C11.2143 5.39449 10.8945 5.71429 10.5 5.71429C10.1055 5.71429 9.78571 5.39449 9.78571 5V0.714286C9.78571 0.319797 10.1055 0 10.5 0C10.8945 0 11.2143 0.319797 11.2143 0.714286V5ZM8.35714 6.28846C8.69878 6.09122 8.81583 5.65437 8.61859 5.31273L6.47573 1.60119C6.27849 1.25955 5.84164 1.1425 5.5 1.33975C5.15836 1.53699 5.04131 1.97384 5.23855 2.31548L7.38141 6.02702C7.57866 6.36865 8.01551 6.48571 8.35714 6.28846ZM6.52702 6.88141C6.86865 7.07865 6.98571 7.51551 6.78846 7.85714C6.59122 8.19878 6.15437 8.31583 5.81273 8.11859L2.10119 5.97573C1.75956 5.77849 1.6425 5.34164 1.83975 5C2.03699 4.65836 2.47384 4.54131 2.81548 4.73855L6.52702 6.88141ZM6.21429 10C6.21429 9.60551 5.89449 9.28571 5.5 9.28571H1.21429C0.819797 9.28571 0.5 9.60551 0.5 10C0.5 10.3945 0.819797 10.7143 1.21429 10.7143H5.5C5.89449 10.7143 6.21429 10.3945 6.21429 10ZM5.81273 11.8814C6.15437 11.6842 6.59122 11.8012 6.78846 12.1429C6.98571 12.4845 6.86865 12.9213 6.52702 13.1186L2.81548 15.2614C2.47384 15.4587 2.03699 15.3416 1.83975 15C1.6425 14.6584 1.75955 14.2215 2.10119 14.0243L5.81273 11.8814ZM8.35714 13.7115C8.01551 13.5143 7.57865 13.6313 7.38141 13.973L5.23855 17.6845C5.04131 18.0262 5.15836 18.463 5.5 18.6603C5.84164 18.8575 6.27849 18.7404 6.47573 18.3988L8.61859 14.6873C8.81583 14.3456 8.69878 13.9088 8.35714 13.7115ZM10.5 14.2857C10.1055 14.2857 9.78571 14.6055 9.78571 15V19.2857C9.78571 19.6802 10.1055 20 10.5 20C10.8945 20 11.2143 19.6802 11.2143 19.2857V15C11.2143 14.6055 10.8945 14.2857 10.5 14.2857ZM12.6429 6.28846C12.9845 6.48571 13.4213 6.36865 13.6186 6.02702L15.7614 2.31548C15.9587 1.97384 15.8416 1.53699 15.5 1.33975C15.1584 1.1425 14.7215 1.25956 14.5243 1.60119L12.3814 5.31273C12.1842 5.65437 12.3012 6.09122 12.6429 6.28846ZM15.1873 8.11859C14.8456 8.31583 14.4088 8.19878 14.2115 7.85714C14.0143 7.51551 14.1313 7.07866 14.473 6.88141L18.1845 4.73855C18.5262 4.54131 18.963 4.65836 19.1603 5C19.3575 5.34164 19.2404 5.77849 18.8988 5.97573L15.1873 8.11859ZM14.7857 10C14.7857 10.3945 15.1055 10.7143 15.5 10.7143H19.7857C20.1802 10.7143 20.5 10.3945 20.5 10C20.5 9.60551 20.1802 9.28571 19.7857 9.28571H15.5C15.1055 9.28571 14.7857 9.60551 14.7857 10ZM14.473 13.1186C14.1313 12.9213 14.0143 12.4845 14.2115 12.1429C14.4088 11.8012 14.8456 11.6842 15.1873 11.8814L18.8988 14.0243C19.2404 14.2215 19.3575 14.6584 19.1603 15C18.963 15.3416 18.5262 15.4587 18.1845 15.2614L14.473 13.1186ZM12.6429 13.7115C12.3012 13.9088 12.1842 14.3456 12.3814 14.6873L14.5243 18.3988C14.7215 18.7404 15.1584 18.8575 15.5 18.6603C15.8416 18.463 15.9587 18.0262 15.7614 17.6845L13.6186 13.973C13.4213 13.6313 12.9845 13.5143 12.6429 13.7115Z" fill="url(#paint0_angular_13_663)"/>
</g>
<defs>
<radialGradient id="paint0_angular_13_663" cx="0" cy="0" r="1" gradientUnits="userSpaceOnUse" gradientTransform="translate(10.5 10) scale(10)">
<stop offset="0.669733" stop-color="#0065FF"/>
<stop offset="0.716307" stop-color="#0065FF" stop-opacity="0.01"/>
</radialGradient>
<clipPath id="clip0_13_663">
<rect width="21" height="20" fill="white"/>
</clipPath>
</defs>
</svg>
